<?xml version="1.0" encoding="UTF-8" standalone="no"?>
<svg width="1200px" height="234px" viewBox="0 0 1200 234" version="1.1" xmlns="http://www.w3.org/2000/svg" xmlns:xlink="http://www.w3.org/1999/xlink">
    <!-- Generator: Sketch 41.2 (35397) - http://www.bohemiancoding.com/sketch -->
    <title>Artboard 2</title>
    <desc>Created with Sketch.</desc>
    <defs></defs>
    <g id="Page-1" stroke="none" stroke-width="1" fill="none" fill-rule="evenodd">
        <g id="Artboard-2">
            <g id="Curve_1" transform="translate(33.000000, 23.000000)">
                <g id="Layer_1">
                    <g id="Group">
                        <path d="M113.5,0.8 C111.3,1 109.6,2.9 109.6,5.1 L109.6,9.3 L54.5,9.3 C52.2,9.3 50.3,11.4 50.3,13.5 L50.3,22 C50.3,24.2 52.3,26.2 54.5,26.2 L57.3,26.2 L57.3,94.1 C57.3,97.2 59.9,99.8 63,99.8 L109.7,99.8 L109.7,102.4 L92.4,121 C90.7,122.6 90.6,125.3 92.3,127 C93.9,128.7 96.6,128.8 98.3,127.1 L98.6,126.8 L109.6,114.9 L109.6,121.1 C109.6,123.4 111.4,125.4 113.8,125.4 C116.1,125.4 118.1,123.6 118.1,121.2 L118.1,121.1 L118.1,114.9 L129.1,126.8 C130.6,128.6 133.3,128.8 135.1,127.3 C136.9,125.8 137.1,123.1 135.6,121.3 L135.3,121 L118.1,102.5 L118.1,99.9 L164.8,99.9 C167.9,99.9 170.5,97.3 170.5,94.2 L170.5,26.3 L173.3,26.3 C175.5,26.3 177.5,24.3 177.5,22.1 L177.5,13.6 C177.5,11.4 175.5,9.4 173.3,9.4 L118.1,9.4 L118.1,5.2 C118.1,2.9 116.3,0.9 113.9,0.9 C113.8,0.8 113.7,0.8 113.5,0.8 L113.5,0.8 Z M65.8,26.3 L162,26.3 L162,91.4 L65.8,91.4 L65.8,26.3 Z" id="XMLID_70_" fill="#939393"></path>
                        <path d="M100.9,36.9 C98.7,37 96.9,38.9 96.9,41.1 L96.9,77.9 C96.9,80.2 98.8,82.1 101.2,82.1 C102,82.1 102.7,81.9 103.3,81.5 L134.4,63.2 C136.4,62 137.1,59.4 135.9,57.4 C135.5,56.8 135,56.2 134.4,55.9 L103.3,37.5 C102.6,37 101.7,36.8 100.9,36.9 Z M105.4,48.5 L123.9,59.5 L105.4,70.4 L105.4,48.5 Z" id="XMLID_67_" fill="#EB5332"></path>
                        <g id="XMLID_73_" transform="translate(0.000000, 167.000000)" fill="#333333">
                            <polygon id="XMLID_162_" points="1.8 15.7 0.1 15.7 0.1 1.4 8.1 1.4 8.1 2.9 1.8 2.9 1.8 8.1 7.7 8.1 7.7 9.6 1.8 9.6"></polygon>
                            <path d="M10,2.1 C10,1.7 10.1,1.5 10.3,1.3 C10.5,1.1 10.7,1 11,1 C11.3,1 11.5,1.1 11.7,1.3 C11.9,1.5 12,1.7 12,2.1 C12,2.5 11.9,2.7 11.7,2.9 C11.5,3.1 11.3,3.2 11,3.2 C10.7,3.2 10.5,3.1 10.3,2.9 C10.1,2.7 10,2.5 10,2.1 Z M11.8,15.7 L10.2,15.7 L10.2,5 L11.8,5 L11.8,15.7 Z" id="XMLID_164_"></path>
                            <path d="M22.6,15.7 L22.6,8.8 C22.6,7.9 22.4,7.3 22,6.8 C21.6,6.3 21,6.2 20.1,6.2 C19,6.2 18.2,6.5 17.6,7.1 C17,7.7 16.8,8.7 16.8,10.1 L16.8,15.7 L15.2,15.7 L15.2,5 L16.5,5 L16.8,6.5 L16.9,6.5 C17.2,6 17.7,5.6 18.3,5.3 C18.9,5 19.6,4.9 20.3,4.9 C21.6,4.9 22.6,5.2 23.2,5.8 C23.8,6.4 24.2,7.4 24.2,8.8 L24.2,15.8 L22.6,15.8 L22.6,15.7 Z" id="XMLID_167_"></path>
                            <path d="M34.1,15.7 L33.8,14.2 L33.7,14.2 C33.2,14.9 32.6,15.3 32.1,15.6 C31.6,15.9 30.9,16 30.1,16 C29,16 28.2,15.7 27.6,15.2 C27,14.7 26.7,13.9 26.7,12.9 C26.7,10.7 28.4,9.6 31.9,9.5 L33.7,9.4 L33.7,8.7 C33.7,7.9 33.5,7.2 33.2,6.8 C32.9,6.4 32.3,6.2 31.5,6.2 C30.6,6.2 29.6,6.5 28.5,7 L28,5.8 C28.5,5.5 29.1,5.3 29.7,5.1 C30.3,4.9 31,4.9 31.6,4.9 C32.9,4.9 33.8,5.2 34.4,5.7 C35,6.2 35.3,7.2 35.3,8.4 L35.3,15.7 L34.1,15.7 L34.1,15.7 Z M30.4,14.6 C31.4,14.6 32.2,14.3 32.8,13.8 C33.4,13.3 33.7,12.5 33.7,11.5 L33.7,10.5 L32.1,10.6 C30.8,10.6 29.9,10.8 29.3,11.2 C28.7,11.6 28.4,12.1 28.4,12.9 C28.4,13.5 28.6,13.9 28.9,14.2 C29.2,14.5 29.8,14.6 30.4,14.6 Z" id="XMLID_169_"></path>
                            <path d="M46,15.7 L46,8.8 C46,7.9 45.8,7.3 45.4,6.8 C45,6.3 44.4,6.2 43.5,6.2 C42.4,6.2 41.6,6.5 41,7.1 C40.4,7.7 40.2,8.7 40.2,10.1 L40.2,15.7 L38.6,15.7 L38.6,5 L40,5 L40.3,6.5 L40.4,6.5 C40.7,6 41.2,5.6 41.8,5.3 C42.4,5 43.1,4.9 43.8,4.9 C45.1,4.9 46.1,5.2 46.7,5.8 C47.3,6.4 47.7,7.4 47.7,8.8 L47.7,15.8 L46,15.8 L46,15.7 Z" id="XMLID_172_"></path>
                            <path d="M55.2,15.9 C53.7,15.9 52.5,15.4 51.6,14.5 C50.7,13.6 50.3,12.2 50.3,10.5 C50.3,8.7 50.7,7.3 51.6,6.3 C52.5,5.3 53.7,4.8 55.3,4.8 C55.8,4.8 56.3,4.9 56.8,5 C57.3,5.1 57.7,5.2 58,5.4 L57.5,6.8 C57.1,6.7 56.8,6.5 56.3,6.4 C55.8,6.3 55.5,6.3 55.2,6.3 C53,6.3 51.9,7.7 51.9,10.5 C51.9,11.8 52.2,12.8 52.7,13.5 C53.2,14.2 54,14.6 55.1,14.6 C56,14.6 56.9,14.4 57.8,14 L57.8,15.4 C57.2,15.7 56.3,15.9 55.2,15.9 Z" id="XMLID_174_"></path>
                            <path d="M60.3,2.1 C60.3,1.7 60.4,1.5 60.6,1.3 C60.8,1.1 61,1 61.3,1 C61.6,1 61.8,1.1 62,1.3 C62.2,1.5 62.3,1.7 62.3,2.1 C62.3,2.5 62.2,2.7 62,2.9 C61.8,3.1 61.6,3.2 61.3,3.2 C61,3.2 60.8,3.1 60.6,2.9 C60.4,2.7 60.3,2.5 60.3,2.1 Z M62.1,15.7 L60.5,15.7 L60.5,5 L62.1,5 L62.1,15.7 Z" id="XMLID_176_"></path>
                            <path d="M72.1,15.7 L71.8,14.2 L71.7,14.2 C71.2,14.9 70.6,15.3 70.1,15.6 C69.6,15.9 68.9,16 68.1,16 C67,16 66.2,15.7 65.6,15.2 C65,14.7 64.7,13.9 64.7,12.9 C64.7,10.7 66.4,9.6 69.9,9.5 L71.7,9.4 L71.7,8.7 C71.7,7.9 71.5,7.2 71.2,6.8 C70.9,6.4 70.3,6.2 69.5,6.2 C68.6,6.2 67.6,6.5 66.5,7 L66,5.8 C66.5,5.5 67.1,5.3 67.7,5.1 C68.3,4.9 69,4.9 69.6,4.9 C70.9,4.9 71.8,5.2 72.4,5.7 C73,6.2 73.3,7.2 73.3,8.4 L73.3,15.7 L72.1,15.7 L72.1,15.7 Z M68.4,14.6 C69.4,14.6 70.2,14.3 70.8,13.8 C71.4,13.3 71.7,12.5 71.7,11.5 L71.7,10.5 L70.1,10.6 C68.8,10.6 67.9,10.8 67.3,11.2 C66.7,11.6 66.4,12.1 66.4,12.9 C66.4,13.5 66.6,13.9 66.9,14.2 C67.2,14.5 67.8,14.6 68.4,14.6 Z" id="XMLID_179_"></path>
                            <polygon id="XMLID_182_" points="78.2 15.7 76.6 15.7 76.6 0.5 78.2 0.5"></polygon>
                            <polygon id="XMLID_184_" points="88.5 15.7 86.9 15.7 86.9 0.5 88.5 0.5"></polygon>
                            <path d="M91.8,2.1 C91.8,1.7 91.9,1.5 92.1,1.3 C92.3,1.1 92.5,1 92.8,1 C93.1,1 93.3,1.1 93.5,1.3 C93.7,1.5 93.8,1.7 93.8,2.1 C93.8,2.5 93.7,2.7 93.5,2.9 C93.3,3.1 93.1,3.2 92.8,3.2 C92.5,3.2 92.3,3.1 92.1,2.9 C91.9,2.7 91.8,2.5 91.8,2.1 Z M93.6,15.7 L92,15.7 L92,5 L93.6,5 L93.6,15.7 Z" id="XMLID_186_"></path>
                            <path d="M100.4,14.6 C100.7,14.6 101,14.6 101.2,14.5 C101.4,14.4 101.7,14.4 101.8,14.4 L101.8,15.6 C101.6,15.7 101.4,15.8 101,15.8 C100.6,15.8 100.4,15.9 100.1,15.9 C98,15.9 97,14.8 97,12.6 L97,6.2 L95.5,6.2 L95.5,5.4 L97,4.7 L97.7,2.4 L98.6,2.4 L98.6,4.9 L101.7,4.9 L101.7,6.2 L98.6,6.2 L98.6,12.5 C98.6,13.1 98.8,13.6 99.1,14 C99.4,14.4 99.9,14.6 100.4,14.6 Z" id="XMLID_189_"></path>
                            <path d="M108.6,15.9 C107,15.9 105.8,15.4 104.9,14.5 C104,13.6 103.5,12.2 103.5,10.5 C103.5,8.8 103.9,7.4 104.8,6.4 C105.7,5.4 106.8,4.9 108.2,4.9 C109.5,4.9 110.6,5.3 111.4,6.2 C112.2,7.1 112.6,8.2 112.6,9.7 L112.6,10.7 L105.2,10.7 C105.2,12 105.6,12.9 106.2,13.6 C106.8,14.3 107.7,14.6 108.7,14.6 C109.9,14.6 111,14.4 112.1,13.9 L112.1,15.3 C111.5,15.5 111,15.7 110.5,15.8 C110,15.9 109.3,15.9 108.6,15.9 Z M108.1,6.2 C107.2,6.2 106.6,6.5 106,7 C105.4,7.5 105.2,8.3 105.1,9.3 L110.7,9.3 C110.7,8.3 110.5,7.5 110,7 C109.5,6.5 109,6.2 108.1,6.2 Z" id="XMLID_191_"></path>
                            <path d="M120.2,4.8 C120.7,4.8 121.1,4.8 121.5,4.9 L121.3,6.4 C120.9,6.3 120.5,6.3 120.1,6.3 C119.2,6.3 118.5,6.7 117.9,7.4 C117.3,8.1 117,9 117,10 L117,15.7 L115.4,15.7 L115.4,5 L116.7,5 L116.9,7 L117,7 C117.4,6.3 117.9,5.8 118.4,5.4 C118.9,5 119.5,4.8 120.2,4.8 Z" id="XMLID_194_"></path>
                            <path d="M130,15.7 L129.7,14.2 L129.6,14.2 C129.1,14.9 128.5,15.3 128,15.6 C127.5,15.9 126.8,16 126,16 C124.9,16 124.1,15.7 123.5,15.2 C122.9,14.7 122.6,13.9 122.6,12.9 C122.6,10.7 124.3,9.6 127.8,9.5 L129.6,9.4 L129.6,8.7 C129.6,7.9 129.4,7.2 129.1,6.8 C128.8,6.4 128.2,6.2 127.4,6.2 C126.5,6.2 125.5,6.5 124.4,7 L123.9,5.8 C124.4,5.5 125,5.3 125.6,5.1 C126.2,4.9 126.9,4.9 127.5,4.9 C128.8,4.9 129.7,5.2 130.3,5.7 C130.9,6.2 131.2,7.2 131.2,8.4 L131.2,15.7 L130,15.7 L130,15.7 Z M126.4,14.6 C127.4,14.6 128.2,14.3 128.8,13.8 C129.4,13.3 129.7,12.5 129.7,11.5 L129.7,10.5 L128.1,10.6 C126.8,10.6 125.9,10.8 125.3,11.2 C124.7,11.6 124.4,12.1 124.4,12.9 C124.4,13.5 124.6,13.9 124.9,14.2 C125.2,14.5 125.7,14.6 126.4,14.6 Z" id="XMLID_196_"></path>
                            <path d="M138.8,15.9 C137.3,15.9 136.1,15.4 135.2,14.5 C134.3,13.6 133.9,12.2 133.9,10.5 C133.9,8.7 134.3,7.3 135.2,6.3 C136.1,5.3 137.3,4.8 138.9,4.8 C139.4,4.8 139.9,4.9 140.4,5 C140.9,5.1 141.3,5.2 141.6,5.4 L141.1,6.8 C140.7,6.7 140.4,6.5 139.9,6.4 C139.4,6.3 139.1,6.3 138.8,6.3 C136.6,6.3 135.5,7.7 135.5,10.5 C135.5,11.8 135.8,12.8 136.3,13.5 C136.8,14.2 137.6,14.6 138.7,14.6 C139.6,14.6 140.5,14.4 141.4,14 L141.4,15.4 C140.8,15.7 139.9,15.9 138.8,15.9 Z" id="XMLID_199_"></path>
                            <path d="M142.4,5 L144.1,5 L146.4,11.1 C146.9,12.5 147.2,13.5 147.4,14.1 L147.5,14.1 C147.6,13.8 147.8,13.2 148,12.4 C148.2,11.6 149.2,9.1 150.7,5 L152.4,5 L147.8,17.2 C147.3,18.4 146.8,19.3 146.2,19.8 C145.6,20.3 144.8,20.6 144,20.6 C143.5,20.6 143,20.5 142.5,20.4 L142.5,19 C142.9,19.1 143.3,19.1 143.7,19.1 C144.8,19.1 145.6,18.5 146.1,17.2 L146.7,15.7 L142.4,5 Z" id="XMLID_201_"></path>
                            <path d="M162.8,14.6 C163.1,14.6 163.4,14.6 163.6,14.5 C163.8,14.4 164.1,14.4 164.2,14.4 L164.2,15.6 C164,15.7 163.8,15.8 163.4,15.8 C163,15.8 162.8,15.9 162.5,15.9 C160.4,15.9 159.4,14.8 159.4,12.6 L159.4,6.2 L157.9,6.2 L157.9,5.4 L159.4,4.7 L160.1,2.4 L161,2.4 L161,4.9 L164.1,4.9 L164.1,6.2 L161,6.2 L161,12.5 C161,13.1 161.2,13.6 161.5,14 C161.8,14.4 162.3,14.6 162.8,14.6 Z" id="XMLID_206_"></path>
                            <path d="M171.3,4.8 C171.8,4.8 172.2,4.8 172.6,4.9 L172.4,6.4 C172,6.3 171.6,6.3 171.2,6.3 C170.3,6.3 169.6,6.7 169,7.4 C168.4,8.1 168.1,9 168.1,10 L168.1,15.7 L166.5,15.7 L166.5,5 L167.8,5 L168,7 L168.1,7 C168.5,6.3 169,5.8 169.5,5.4 C170,5 170.6,4.8 171.3,4.8 Z" id="XMLID_208_"></path>
                            <path d="M181.2,15.7 L180.9,14.2 L180.8,14.2 C180.3,14.9 179.7,15.3 179.2,15.6 C178.7,15.9 178,16 177.2,16 C176.1,16 175.3,15.7 174.7,15.2 C174.1,14.7 173.8,13.9 173.8,12.9 C173.8,10.7 175.5,9.6 179,9.5 L180.8,9.4 L180.8,8.7 C180.8,7.9 180.6,7.2 180.3,6.8 C180,6.4 179.4,6.2 178.6,6.2 C177.7,6.2 176.7,6.5 175.6,7 L175.1,5.8 C175.6,5.5 176.2,5.3 176.8,5.1 C177.4,4.9 178.1,4.9 178.7,4.9 C180,4.9 180.9,5.2 181.5,5.7 C182.1,6.2 182.4,7.2 182.4,8.4 L182.4,15.7 L181.2,15.7 L181.2,15.7 Z M177.5,14.6 C178.5,14.6 179.3,14.3 179.9,13.8 C180.5,13.3 180.8,12.5 180.8,11.5 L180.8,10.5 L179.2,10.6 C177.9,10.6 177,10.8 176.4,11.2 C175.8,11.6 175.5,12.1 175.5,12.9 C175.5,13.5 175.7,13.9 176,14.2 C176.3,14.5 176.9,14.6 177.5,14.6 Z" id="XMLID_210_"></path>
                            <path d="M185.6,2.1 C185.6,1.7 185.7,1.5 185.9,1.3 C186.1,1.1 186.3,1 186.6,1 C186.9,1 187.1,1.1 187.3,1.3 C187.5,1.5 187.6,1.7 187.6,2.1 C187.6,2.5 187.5,2.7 187.3,2.9 C187.1,3.1 186.9,3.2 186.6,3.2 C186.3,3.2 186.1,3.1 185.9,2.9 C185.7,2.7 185.6,2.5 185.6,2.1 Z M187.3,15.7 L185.7,15.7 L185.7,5 L187.3,5 L187.3,15.7 Z" id="XMLID_213_"></path>
                            <path d="M198.1,15.7 L198.1,8.8 C198.1,7.9 197.9,7.3 197.5,6.8 C197.1,6.3 196.5,6.2 195.6,6.2 C194.5,6.2 193.7,6.5 193.1,7.1 C192.5,7.7 192.3,8.7 192.3,10.1 L192.3,15.7 L190.7,15.7 L190.7,5 L192,5 L192.3,6.5 L192.4,6.5 C192.7,6 193.2,5.6 193.8,5.3 C194.4,5 195.1,4.9 195.8,4.9 C197.1,4.9 198.1,5.2 198.7,5.8 C199.3,6.4 199.7,7.4 199.7,8.8 L199.7,15.8 L198.1,15.8 L198.1,15.7 Z" id="XMLID_216_"></path>
                            <path d="M202.9,2.1 C202.9,1.7 203,1.5 203.2,1.3 C203.4,1.1 203.6,1 203.9,1 C204.2,1 204.4,1.1 204.6,1.3 C204.8,1.5 204.9,1.7 204.9,2.1 C204.9,2.5 204.8,2.7 204.6,2.9 C204.4,3.1 204.2,3.2 203.9,3.2 C203.6,3.2 203.4,3.1 203.2,2.9 C203,2.7 202.9,2.5 202.9,2.1 Z M204.7,15.7 L203,15.7 L203,5 L204.6,5 L204.6,15.7 L204.7,15.7 Z" id="XMLID_218_"></path>
                            <path d="M215.4,15.7 L215.4,8.8 C215.4,7.9 215.2,7.3 214.8,6.8 C214.4,6.3 213.8,6.2 212.9,6.2 C211.8,6.2 211,6.5 210.4,7.1 C209.8,7.7 209.6,8.7 209.6,10.1 L209.6,15.7 L208,15.7 L208,5 L209.3,5 L209.6,6.5 L209.7,6.5 C210,6 210.5,5.6 211.1,5.3 C211.7,5 212.4,4.9 213.1,4.9 C214.4,4.9 215.4,5.2 216,5.8 C216.6,6.4 217,7.4 217,8.8 L217,15.8 L215.4,15.8 L215.4,15.7 Z" id="XMLID_221_"></path>
                            <path d="M229.1,5 L229.1,6 L227.1,6.2 C227.3,6.4 227.4,6.7 227.6,7.1 C227.8,7.5 227.8,7.9 227.8,8.3 C227.8,9.3 227.4,10.2 226.7,10.8 C226,11.4 225,11.7 223.8,11.7 C223.5,11.7 223.2,11.7 222.9,11.6 C222.2,12 221.9,12.4 221.9,13 C221.9,13.3 222,13.5 222.3,13.6 C222.6,13.7 223,13.8 223.5,13.8 L225.4,13.8 C226.6,13.8 227.4,14 228.1,14.5 C228.8,15 229,15.7 229,16.6 C229,17.8 228.5,18.7 227.6,19.3 C226.7,19.9 225.3,20.2 223.4,20.2 C222,20.2 220.9,19.9 220.2,19.4 C219.5,18.9 219.1,18.1 219.1,17.2 C219.1,16.5 219.3,16 219.7,15.5 C220.1,15 220.7,14.7 221.5,14.5 C221.2,14.4 221,14.2 220.8,13.9 C220.6,13.6 220.5,13.3 220.5,13 C220.5,12.6 220.6,12.3 220.8,12 C221,11.7 221.3,11.4 221.8,11.2 C221.2,11 220.8,10.6 220.4,10 C220,9.4 219.9,8.8 219.9,8.1 C219.9,6.9 220.3,6 221,5.4 C221.7,4.8 222.7,4.4 224,4.4 C224.6,4.4 225.1,4.5 225.5,4.6 L229.1,4.6 L229.1,5 Z M220.6,17.5 C220.6,18.1 220.8,18.5 221.3,18.8 C221.8,19.1 222.5,19.2 223.4,19.2 C224.8,19.2 225.8,19 226.4,18.6 C227,18.2 227.4,17.6 227.4,16.9 C227.4,16.3 227.2,15.9 226.9,15.7 C226.6,15.5 225.9,15.4 224.9,15.4 L223,15.4 C222.3,15.4 221.7,15.6 221.3,15.9 C220.9,16.2 220.6,16.8 220.6,17.5 Z M221.5,8.4 C221.5,9.1 221.7,9.7 222.1,10.1 C222.5,10.5 223.1,10.7 223.9,10.7 C225.5,10.7 226.3,9.9 226.3,8.4 C226.3,6.8 225.5,6 223.9,6 C223.1,6 222.6,6.2 222.1,6.6 C221.6,7 221.5,7.6 221.5,8.4 Z" id="XMLID_223_"></path>
                        </g>
                        <g id="XMLID_74_" transform="translate(359.000000, 168.000000)" fill="#333333">
                            <path d="M0.6,0.4 L4.6,0.4 C6.5,0.4 7.9,0.7 8.7,1.2 C9.5,1.7 10,2.7 10,3.9 C10,4.7 9.8,5.4 9.3,6 C8.8,6.6 8.1,6.9 7.2,7.1 L7.2,7.2 C9.4,7.6 10.5,8.7 10.5,10.6 C10.5,11.9 10.1,12.9 9.2,13.6 C8.3,14.3 7.1,14.7 5.6,14.7 L0.6,14.7 L0.6,0.4 Z M2.2,6.5 L4.9,6.5 C6.1,6.5 6.9,6.3 7.4,5.9 C7.9,5.5 8.2,4.9 8.2,4 C8.2,3.2 7.9,2.6 7.3,2.3 C6.7,2 5.8,1.8 4.6,1.8 L2.2,1.8 L2.2,6.5 L2.2,6.5 Z M2.2,7.9 L2.2,13.2 L5.2,13.2 C6.4,13.2 7.2,13 7.8,12.5 C8.4,12 8.7,11.4 8.7,10.4 C8.7,9.5 8.4,8.9 7.8,8.4 C7.2,7.9 6.3,7.8 5.1,7.8 L2.2,7.8 L2.2,7.9 Z" id="XMLID_129_"></path>
                            <path d="M13.1,1.1 C13.1,0.7 13.2,0.5 13.4,0.3 C13.6,0.1 13.8,0 14.1,0 C14.4,0 14.6,0.1 14.8,0.3 C15,0.5 15.1,0.7 15.1,1.1 C15.1,1.5 15,1.7 14.8,1.9 C14.6,2.1 14.4,2.2 14.1,2.2 C13.8,2.2 13.6,2.1 13.4,1.9 C13.2,1.7 13.1,1.5 13.1,1.1 Z M14.9,14.7 L13.3,14.7 L13.3,4 L14.9,4 L14.9,14.7 Z" id="XMLID_133_"></path>
                            <path d="M27.6,9.3 C27.6,11 27.2,12.4 26.3,13.4 C25.4,14.4 24.2,14.9 22.7,14.9 C21.7,14.9 20.9,14.7 20.2,14.2 C19.5,13.7 18.9,13.1 18.5,12.3 C18.1,11.5 17.9,10.5 17.9,9.4 C17.9,7.7 18.3,6.3 19.2,5.3 C20.1,4.3 21.3,3.8 22.8,3.8 C24.3,3.8 25.5,4.3 26.4,5.3 C27.3,6.3 27.6,7.6 27.6,9.3 Z M19.4,9.3 C19.4,10.7 19.7,11.7 20.2,12.4 C20.7,13.1 21.6,13.5 22.6,13.5 C23.6,13.5 24.5,13.1 25,12.4 C25.5,11.7 25.8,10.6 25.8,9.3 C25.8,7.9 25.5,6.9 25,6.2 C24.5,5.5 23.6,5.1 22.6,5.1 C21.5,5.1 20.7,5.4 20.2,6.1 C19.7,6.8 19.4,8 19.4,9.3 Z" id="XMLID_136_"></path>
                            <path d="M44.1,14.7 L44.1,7.7 C44.1,6.8 43.9,6.2 43.6,5.8 C43.3,5.4 42.7,5.2 41.9,5.2 C40.9,5.2 40.1,5.5 39.7,6.1 C39.3,6.7 39,7.6 39,8.8 L39,14.8 L37.4,14.8 L37.4,7.8 C37.4,6.9 37.2,6.3 36.9,5.9 C36.6,5.5 36,5.3 35.2,5.3 C34.2,5.3 33.4,5.6 33,6.2 C32.6,6.8 32.3,7.8 32.3,9.2 L32.3,14.8 L30.7,14.8 L30.7,4 L32,4 L32.3,5.5 L32.4,5.5 C32.7,5 33.1,4.6 33.7,4.3 C34.3,4 34.9,3.9 35.6,3.9 C37.3,3.9 38.4,4.5 38.9,5.7 L39,5.7 C39.3,5.1 39.8,4.7 40.4,4.4 C41,4.1 41.7,3.9 42.5,3.9 C43.7,3.9 44.6,4.2 45.2,4.8 C45.8,5.4 46.1,6.4 46.1,7.8 L46.1,14.8 L44.1,14.8 L44.1,14.7 Z" id="XMLID_139_"></path>
                            <path d="M53.5,14.9 C51.9,14.9 50.7,14.4 49.8,13.5 C48.9,12.6 48.4,11.2 48.4,9.5 C48.4,7.8 48.8,6.4 49.7,5.4 C50.6,4.4 51.7,3.9 53.1,3.9 C54.4,3.9 55.5,4.3 56.3,5.2 C57.1,6.1 57.5,7.2 57.5,8.7 L57.5,9.7 L50.1,9.7 C50.1,11 50.5,11.9 51.1,12.6 C51.7,13.3 52.6,13.6 53.6,13.6 C54.8,13.6 55.9,13.4 57,12.9 L57,14.3 C56.4,14.5 55.9,14.7 55.4,14.8 C54.9,14.9 54.3,14.9 53.5,14.9 Z M53.1,5.2 C52.2,5.2 51.6,5.5 51,6 C50.4,6.5 50.2,7.3 50.1,8.3 L55.7,8.3 C55.7,7.3 55.5,6.5 55,6 C54.5,5.5 53.9,5.2 53.1,5.2 Z" id="XMLID_141_"></path>
                            <path d="M63.7,13.6 C64,13.6 64.3,13.6 64.5,13.5 C64.7,13.4 65,13.4 65.1,13.4 L65.1,14.6 C64.9,14.7 64.7,14.8 64.3,14.8 C63.9,14.8 63.7,14.9 63.4,14.9 C61.3,14.9 60.3,13.8 60.3,11.6 L60.3,5.2 L58.8,5.2 L58.8,4.4 L60.3,3.7 L61,1.4 L61.9,1.4 L61.9,3.9 L65,3.9 L65,5.2 L62,5.2 L62,11.5 C62,12.1 62.2,12.6 62.5,13 C62.8,13.4 63.2,13.6 63.7,13.6 Z" id="XMLID_144_"></path>
                            <path d="M72.2,3.8 C72.7,3.8 73.1,3.8 73.5,3.9 L73.3,5.4 C72.9,5.3 72.5,5.3 72.1,5.3 C71.2,5.3 70.5,5.7 69.9,6.4 C69.3,7.1 69,8 69,9 L69,14.7 L67.4,14.7 L67.4,4 L68.7,4 L68.9,6 L69,6 C69.4,5.3 69.9,4.8 70.4,4.4 C70.9,4 71.5,3.8 72.2,3.8 Z" id="XMLID_146_"></path>
                            <path d="M75.3,1.1 C75.3,0.7 75.4,0.5 75.6,0.3 C75.8,0.1 76,0 76.3,0 C76.6,0 76.8,0.1 77,0.3 C77.2,0.5 77.3,0.7 77.3,1.1 C77.3,1.5 77.2,1.7 77,1.9 C76.8,2.1 76.6,2.2 76.3,2.2 C76,2.2 75.8,2.1 75.6,1.9 C75.4,1.7 75.3,1.5 75.3,1.1 Z M77.1,14.7 L75.5,14.7 L75.5,4 L77.1,4 L77.1,14.7 Z" id="XMLID_148_"></path>
                            <path d="M84.8,14.9 C83.3,14.9 82.1,14.4 81.2,13.5 C80.3,12.6 79.9,11.2 79.9,9.5 C79.9,7.7 80.3,6.3 81.2,5.3 C82.1,4.3 83.3,3.8 84.9,3.8 C85.4,3.8 85.9,3.9 86.4,4 C86.9,4.1 87.3,4.2 87.6,4.4 L87.1,5.8 C86.7,5.7 86.4,5.5 85.9,5.4 C85.4,5.3 85.1,5.3 84.8,5.3 C82.6,5.3 81.5,6.7 81.5,9.5 C81.5,10.8 81.8,11.8 82.3,12.5 C82.8,13.2 83.6,13.6 84.7,13.6 C85.6,13.6 86.5,13.4 87.4,13 L87.4,14.4 C86.8,14.7 85.9,14.9 84.8,14.9 Z" id="XMLID_151_"></path>
                            <path d="M99.8,14.9 C98.2,14.9 97,14.4 96.1,13.5 C95.2,12.6 94.7,11.2 94.7,9.5 C94.7,7.8 95.1,6.4 96,5.4 C96.9,4.4 98,3.9 99.4,3.9 C100.7,3.9 101.8,4.3 102.6,5.2 C103.4,6.1 103.8,7.2 103.8,8.7 L103.8,9.7 L96.4,9.7 C96.4,11 96.8,11.9 97.4,12.6 C98,13.3 98.9,13.6 99.9,13.6 C101.1,13.6 102.2,13.4 103.3,12.9 L103.3,14.3 C102.7,14.5 102.2,14.7 101.7,14.8 C101.2,14.9 100.5,14.9 99.8,14.9 Z M99.3,5.2 C98.4,5.2 97.8,5.5 97.2,6 C96.6,6.5 96.4,7.3 96.3,8.3 L101.9,8.3 C101.9,7.3 101.7,6.5 101.2,6 C100.7,5.5 100.2,5.2 99.3,5.2 Z" id="XMLID_153_"></path>
                            <polygon id="XMLID_156_" points="117 14.7 115 14.7 109.8 7.8 108.3 9.1 108.3 14.7 106.6 14.7 106.6 0.4 108.3 0.4 108.3 7.5 114.8 0.4 116.8 0.4 111.1 6.6"></polygon>
                            <polygon id="XMLID_158_" points="122.6 7.6 126.4 0.5 128.2 0.5 123.4 9.2 123.4 14.7 121.7 14.7 121.7 9.2 116.9 0.4 118.7 0.4"></polygon>
                            <path d="M136.3,1.7 C134.7,1.7 133.5,2.2 132.6,3.3 C131.7,4.4 131.2,5.8 131.2,7.6 C131.2,9.5 131.6,10.9 132.5,11.9 C133.4,12.9 134.6,13.4 136.2,13.4 C137.2,13.4 138.3,13.2 139.6,12.9 L139.6,14.4 C138.6,14.8 137.4,15 135.9,15 C133.8,15 132.2,14.4 131,13.1 C129.8,11.8 129.3,10 129.3,7.7 C129.3,6.2 129.6,4.9 130.1,3.8 C130.6,2.7 131.4,1.8 132.5,1.2 C133.6,0.6 134.8,0.3 136.2,0.3 C137.7,0.3 139,0.6 140.1,1.1 L139.4,2.5 C138.5,2 137.4,1.7 136.3,1.7 Z" id="XMLID_160_"></path>
                        </g>
                        <g id="XMLID_83_" transform="translate(690.000000, 0.000000)">
                            <path d="M63.6,0.9 C28.5,0.9 0,29.4 0,64.5 C0,99.6 28.5,128.1 63.6,128.1 C98.7,128.1 127.2,99.6 127.2,64.5 C127.2,29.4 98.7,0.9 63.6,0.9 Z M63.6,10.4 C93.5,10.4 117.7,34.6 117.7,64.5 C117.7,94.4 93.5,118.6 63.6,118.6 C33.7,118.6 9.5,94.4 9.5,64.5 C9.5,34.7 33.7,10.4 63.6,10.4 Z" id="XMLID_56_" fill="#00A9DD"></path>
                            <path d="M63.6,15.1 C61.5,15.1 59.8,16.8 59.8,18.9 L59.8,64.8 C59.8,65.3 59.9,65.8 60.1,66.2 C60.3,67.2 61,68.1 62,68.6 L84,81 C85.8,82 88.2,81.4 89.2,79.5 C90.2,77.7 89.6,75.3 87.7,74.3 L67.4,63 L67.4,18.9 C67.4,16.8 65.7,15.1 63.6,15.1 Z" id="XMLID_55_" fill="#939393"></path>
                            <path d="M42.4,24.5 C41.4,25 40.4,25.6 39.4,26.2 L42.9,32.2 C43.9,31.6 44.9,31 45.9,30.5 L42.4,24.5 Z" id="XMLID_54_" fill="#939393"></path>
                            <path d="M84.7,24.5 L81.2,30.5 C82.2,31 83.2,31.6 84.2,32.2 L87.7,26.2 C86.7,25.6 85.7,25 84.7,24.5 Z" id="XMLID_53_" fill="#939393"></path>
                            <path d="M101.9,40.4 L95.9,43.9 C96.5,44.9 97.1,45.9 97.6,46.9 L103.6,43.4 C103.1,42.4 102.5,41.4 101.9,40.4 Z" id="XMLID_52_" fill="#939393"></path>
                            <path d="M25.2,40.4 C24.6,41.4 24,42.4 23.5,43.4 L29.5,46.9 C30,45.9 30.6,44.9 31.2,43.9 L25.2,40.4 Z" id="XMLID_51_" fill="#939393"></path>
                            <path d="M18.3,62.8 L18.3,64.5 L18.3,66.2 L25.2,66.2 L25.2,64.5 L25.2,62.8 L18.3,62.8 Z" id="XMLID_50_" fill="#939393"></path>
                            <path d="M101.9,62.8 L101.9,64.5 L101.9,66.2 L108.8,66.2 L108.8,64.5 L108.8,62.8 L101.9,62.8 Z" id="XMLID_49_" fill="#939393"></path>
                            <path d="M29.5,82.2 L23.5,85.7 C24,86.7 24.6,87.7 25.2,88.7 L31.2,85.2 C30.6,84.2 30,83.2 29.5,82.2 Z" id="XMLID_48_" fill="#939393"></path>
                            <path d="M97.6,82.2 C97.1,83.2 96.5,84.2 95.9,85.2 L101.9,88.7 C102.5,87.7 103.1,86.7 103.6,85.7 L97.6,82.2 Z" id="XMLID_47_" fill="#939393"></path>
                            <path d="M42.9,96.9 L39.4,102.9 C40.4,103.5 41.4,104.1 42.4,104.6 L45.9,98.6 C44.8,98.1 43.8,97.5 42.9,96.9 Z" id="XMLID_46_" fill="#939393"></path>
                            <path d="M84.2,96.9 C83.2,97.5 82.2,98.1 81.2,98.6 L84.7,104.6 C85.7,104.1 86.7,103.5 87.7,102.9 L84.2,96.9 Z" id="XMLID_45_" fill="#939393"></path>
                            <path d="M61.8,102.9 L61.8,109.8 L63.5,109.8 L65.2,109.8 L65.2,102.9 L63.5,102.9 L61.8,102.9 Z" id="XMLID_44_" fill="#939393"></path>
                        </g>
                        <g id="XMLID_76_" transform="translate(638.000000, 167.000000)" fill="#333333">
                            <path d="M9,11.9 C9,13.2 8.5,14.1 7.6,14.8 C6.7,15.5 5.5,15.9 3.9,15.9 C2.2,15.9 0.9,15.7 0,15.2 L0,13.6 C0.6,13.8 1.2,14 1.9,14.2 C2.6,14.4 3.3,14.4 4,14.4 C5.1,14.4 5.9,14.2 6.5,13.8 C7.1,13.4 7.3,12.8 7.3,12 C7.3,11.5 7.2,11.1 7,10.8 C6.8,10.5 6.5,10.2 6,9.9 C5.5,9.6 4.8,9.3 3.9,9 C2.6,8.5 1.6,8 1.1,7.3 C0.6,6.6 0.2,5.8 0.2,4.8 C0.2,3.7 0.6,2.8 1.4,2.2 C2.2,1.6 3.3,1.2 4.7,1.2 C6.1,1.2 7.4,1.5 8.6,2 L8.1,3.4 C6.9,2.9 5.8,2.7 4.7,2.7 C3.8,2.7 3.1,2.9 2.6,3.3 C2.1,3.7 1.9,4.2 1.9,4.9 C1.9,5.4 2,5.8 2.2,6.1 C2.4,6.4 2.7,6.7 3.1,7 C3.5,7.3 4.2,7.6 5.1,7.9 C6.6,8.4 7.6,9 8.2,9.6 C8.7,10.1 9,10.9 9,11.9 Z" id="XMLID_32_"></path>
                            <path d="M18.3,15.7 L18,14.2 L17.9,14.2 C17.4,14.9 16.8,15.3 16.3,15.6 C15.8,15.8 15.1,16 14.3,16 C13.2,16 12.4,15.7 11.8,15.2 C11.2,14.7 10.9,13.9 10.9,12.9 C10.9,10.7 12.6,9.6 16.1,9.5 L17.9,9.4 L17.9,8.7 C17.9,7.9 17.7,7.2 17.4,6.8 C17.1,6.4 16.5,6.2 15.7,6.2 C14.8,6.2 13.8,6.5 12.7,7 L12.2,5.8 C12.7,5.5 13.3,5.3 13.9,5.1 C14.5,4.9 15.2,4.9 15.8,4.9 C17.1,4.9 18,5.2 18.6,5.7 C19.2,6.2 19.5,7.2 19.5,8.4 L19.5,15.7 L18.3,15.7 L18.3,15.7 Z M14.6,14.6 C15.6,14.6 16.4,14.3 17,13.8 C17.6,13.3 17.9,12.5 17.9,11.5 L17.9,10.5 L16.3,10.6 C15,10.6 14.1,10.8 13.5,11.2 C12.9,11.6 12.6,12.1 12.6,12.9 C12.6,13.5 12.8,13.9 13.1,14.2 C13.5,14.4 14,14.6 14.6,14.6 Z" id="XMLID_34_"></path>
                            <path d="M36.5,15.7 L36.5,8.7 C36.5,7.8 36.3,7.2 36,6.8 C35.6,6.4 35.1,6.2 34.3,6.2 C33.3,6.2 32.5,6.5 32.1,7.1 C31.6,7.7 31.4,8.6 31.4,9.8 L31.4,15.8 L29.8,15.8 L29.8,8.8 C29.8,7.9 29.6,7.3 29.3,6.9 C28.9,6.5 28.4,6.3 27.6,6.3 C26.6,6.3 25.8,6.6 25.4,7.2 C24.9,7.8 24.7,8.8 24.7,10.2 L24.7,15.8 L23.1,15.8 L23.1,5 L24.4,5 L24.7,6.5 L24.8,6.5 C25.1,6 25.5,5.6 26.1,5.3 C26.7,5 27.3,4.9 28,4.9 C29.7,4.9 30.8,5.5 31.3,6.7 L31.4,6.7 C31.7,6.1 32.2,5.7 32.8,5.4 C33.4,5.1 34.1,4.9 34.9,4.9 C36.1,4.9 37,5.2 37.6,5.8 C38.2,6.4 38.5,7.4 38.5,8.8 L38.5,15.8 L36.5,15.8 L36.5,15.7 Z" id="XMLID_37_"></path>
                            <path d="M45.9,15.9 C44.3,15.9 43.1,15.4 42.2,14.5 C41.3,13.5 40.8,12.2 40.8,10.5 C40.8,8.8 41.2,7.4 42.1,6.4 C43,5.4 44.1,4.9 45.5,4.9 C46.8,4.9 47.9,5.3 48.7,6.2 C49.5,7.1 49.9,8.2 49.9,9.7 L49.9,10.7 L42.5,10.7 C42.5,12 42.8,12.9 43.5,13.6 C44.1,14.3 45,14.6 46,14.6 C47.2,14.6 48.3,14.4 49.4,13.9 L49.4,15.3 C48.8,15.5 48.3,15.7 47.8,15.8 C47.3,15.8 46.7,15.9 45.9,15.9 Z M45.5,6.2 C44.6,6.2 44,6.5 43.4,7 C42.9,7.6 42.6,8.3 42.5,9.3 L48.1,9.3 C48.1,8.3 47.9,7.5 47.4,7 C47,6.4 46.3,6.2 45.5,6.2 Z" id="XMLID_39_"></path>
                            <path d="M65.1,14.3 L65.1,14.3 C64.3,15.4 63.1,15.9 61.7,15.9 C60.3,15.9 59.2,15.4 58.4,14.5 C57.6,13.5 57.2,12.2 57.2,10.4 C57.2,8.6 57.6,7.3 58.4,6.3 C59.2,5.3 60.3,4.8 61.7,4.8 C63.2,4.8 64.3,5.3 65,6.4 L65.1,6.4 L65,5.6 L65,4.8 L65,0.4 L66.6,0.4 L66.6,15.6 L65.3,15.6 L65.1,14.3 Z M61.9,14.5 C63,14.5 63.8,14.2 64.3,13.6 C64.8,13 65,12 65,10.7 L65,10.4 C65,8.9 64.7,7.8 64.2,7.2 C63.7,6.6 62.9,6.2 61.8,6.2 C60.8,6.2 60.1,6.6 59.6,7.3 C59.1,8 58.8,9.1 58.8,10.4 C58.8,11.8 59.1,12.8 59.6,13.5 C60.2,14.2 60.9,14.5 61.9,14.5 Z" id="XMLID_42_"></path>
                            <path d="M76.7,15.7 L76.4,14.2 L76.3,14.2 C75.8,14.9 75.2,15.3 74.7,15.6 C74.2,15.8 73.5,16 72.7,16 C71.6,16 70.8,15.7 70.2,15.2 C69.6,14.7 69.3,13.9 69.3,12.9 C69.3,10.7 71,9.6 74.5,9.5 L76.3,9.4 L76.3,8.7 C76.3,7.9 76.1,7.2 75.8,6.8 C75.5,6.4 74.9,6.2 74.1,6.2 C73.2,6.2 72.2,6.5 71.1,7 L70.6,5.8 C71.1,5.5 71.7,5.3 72.3,5.1 C72.9,4.9 73.6,4.9 74.2,4.9 C75.5,4.9 76.4,5.2 77,5.7 C77.6,6.2 77.9,7.2 77.9,8.4 L77.9,15.7 L76.7,15.7 L76.7,15.7 Z M73,14.6 C74,14.6 74.8,14.3 75.4,13.8 C76,13.3 76.3,12.5 76.3,11.5 L76.3,10.5 L74.7,10.6 C73.4,10.6 72.5,10.8 71.9,11.2 C71.3,11.6 71,12.1 71,12.9 C71,13.5 71.2,13.9 71.5,14.2 C71.9,14.4 72.4,14.6 73,14.6 Z" id="XMLID_78_"></path>
                            <path d="M79.5,5 L81.2,5 L83.5,11.1 C84,12.5 84.3,13.5 84.5,14.1 L84.6,14.1 C84.7,13.8 84.9,13.2 85.1,12.4 C85.4,11.6 86.3,9.1 87.8,5 L89.5,5 L84.9,17.2 C84.4,18.4 83.9,19.3 83.3,19.8 C82.7,20.3 81.9,20.6 81.1,20.6 C80.6,20.6 80.1,20.5 79.6,20.4 L79.6,19 C80,19.1 80.4,19.1 80.8,19.1 C81.9,19.1 82.7,18.5 83.2,17.2 L83.8,15.7 L79.5,5 Z" id="XMLID_81_"></path>
                            <polygon id="XMLID_85_" points="98.1 15.7 96.5 15.7 96.5 0.5 98.1 0.5"></polygon>
                            <path d="M110.8,10.3 C110.8,12 110.4,13.4 109.5,14.4 C108.6,15.4 107.4,15.9 105.9,15.9 C104.9,15.9 104.1,15.7 103.4,15.2 C102.7,14.7 102.1,14.1 101.7,13.3 C101.3,12.5 101.1,11.5 101.1,10.4 C101.1,8.7 101.5,7.3 102.4,6.3 C103.3,5.3 104.5,4.8 106,4.8 C107.5,4.8 108.7,5.3 109.6,6.3 C110.3,7.3 110.8,8.6 110.8,10.3 Z M102.6,10.3 C102.6,11.7 102.9,12.7 103.4,13.4 C103.9,14.1 104.8,14.5 105.8,14.5 C106.9,14.5 107.7,14.1 108.2,13.4 C108.7,12.7 109,11.6 109,10.3 C109,8.9 108.7,7.9 108.2,7.2 C107.6,6.5 106.8,6.1 105.8,6.1 C104.7,6.1 103.9,6.4 103.4,7.1 C102.9,7.9 102.6,9 102.6,10.3 Z" id="XMLID_87_"></path>
                            <path d="M120.2,15.7 L119.9,14.2 L119.8,14.2 C119.3,14.9 118.7,15.3 118.2,15.6 C117.7,15.8 117,16 116.2,16 C115.1,16 114.3,15.7 113.7,15.2 C113.1,14.7 112.8,13.9 112.8,12.9 C112.8,10.7 114.5,9.6 118,9.5 L119.8,9.4 L119.8,8.7 C119.8,7.9 119.6,7.2 119.3,6.8 C119,6.4 118.4,6.2 117.6,6.2 C116.7,6.2 115.7,6.5 114.6,7 L114.1,5.8 C114.6,5.5 115.2,5.3 115.8,5.1 C116.4,4.9 117.1,4.9 117.7,4.9 C119,4.9 119.9,5.2 120.5,5.7 C121.1,6.2 121.4,7.2 121.4,8.4 L121.4,15.7 L120.2,15.7 L120.2,15.7 Z M116.5,14.6 C117.5,14.6 118.3,14.3 118.9,13.8 C119.5,13.3 119.8,12.5 119.8,11.5 L119.8,10.5 L118.2,10.6 C116.9,10.6 116,10.8 115.4,11.2 C114.8,11.6 114.5,12.1 114.5,12.9 C114.5,13.5 114.7,13.9 115,14.2 C115.4,14.4 115.9,14.6 116.5,14.6 Z" id="XMLID_90_"></path>
                            <path d="M132.1,15.7 L132.1,8.8 C132.1,7.9 131.9,7.3 131.5,6.8 C131.1,6.4 130.5,6.2 129.6,6.2 C128.5,6.2 127.7,6.5 127.1,7.1 C126.6,7.7 126.3,8.7 126.3,10.1 L126.3,15.7 L124.7,15.7 L124.7,5 L126,5 L126.3,6.5 L126.4,6.5 C126.7,6 127.2,5.6 127.8,5.3 C128.4,5 129.1,4.9 129.8,4.9 C131.1,4.9 132.1,5.2 132.7,5.8 C133.4,6.4 133.7,7.4 133.7,8.8 L133.7,15.8 L132.1,15.8 L132.1,15.7 Z" id="XMLID_93_"></path>
                            <path d="M148.8,15.7 L148.5,14.2 L148.4,14.2 C147.9,14.9 147.3,15.3 146.8,15.6 C146.3,15.8 145.6,16 144.8,16 C143.7,16 142.9,15.7 142.3,15.2 C141.7,14.7 141.4,13.9 141.4,12.9 C141.4,10.7 143.1,9.6 146.6,9.5 L148.4,9.4 L148.4,8.7 C148.4,7.9 148.2,7.2 147.9,6.8 C147.6,6.4 147,6.2 146.2,6.2 C145.3,6.2 144.3,6.5 143.2,7 L142.7,5.8 C143.2,5.5 143.8,5.3 144.4,5.1 C145,4.9 145.7,4.9 146.3,4.9 C147.6,4.9 148.5,5.2 149.1,5.7 C149.7,6.2 150,7.2 150,8.4 L150,15.7 L148.8,15.7 L148.8,15.7 Z M145.1,14.6 C146.1,14.6 146.9,14.3 147.5,13.8 C148.1,13.3 148.4,12.5 148.4,11.5 L148.4,10.5 L146.8,10.6 C145.5,10.6 144.6,10.8 144,11.2 C143.4,11.6 143.1,12.1 143.1,12.9 C143.1,13.5 143.3,13.9 143.6,14.2 C144,14.4 144.5,14.6 145.1,14.6 Z" id="XMLID_95_"></path>
                            <path d="M158.3,15.9 C157.6,15.9 157,15.8 156.4,15.5 C155.8,15.2 155.3,14.8 154.9,14.3 L154.8,14.3 C154.9,14.9 154.9,15.5 154.9,16.1 L154.9,20.5 L153.3,20.5 L153.3,5 L154.6,5 L154.8,6.5 L154.9,6.5 C155.3,5.9 155.8,5.5 156.4,5.2 C157,4.9 157.6,4.8 158.3,4.8 C159.7,4.8 160.8,5.3 161.6,6.3 C162.4,7.3 162.8,8.6 162.8,10.4 C162.8,12.2 162.4,13.5 161.6,14.5 C160.8,15.4 159.7,15.9 158.3,15.9 Z M158.1,6.2 C157,6.2 156.2,6.5 155.7,7.1 C155.2,7.7 155,8.7 154.9,10 L154.9,10.4 C154.9,11.9 155.2,13 155.7,13.6 C156.2,14.2 157,14.6 158.1,14.6 C159,14.6 159.7,14.2 160.3,13.5 C160.8,12.8 161.1,11.7 161.1,10.4 C161.1,9.1 160.8,8 160.3,7.3 C159.8,6.5 159,6.2 158.1,6.2 Z" id="XMLID_98_"></path>
                            <path d="M170.6,15.9 C169.9,15.9 169.3,15.8 168.7,15.5 C168.1,15.2 167.6,14.8 167.2,14.3 L167.1,14.3 C167.2,14.9 167.2,15.5 167.2,16.1 L167.2,20.5 L165.6,20.5 L165.6,5 L166.9,5 L167.1,6.5 L167.2,6.5 C167.6,5.9 168.1,5.5 168.7,5.2 C169.3,4.9 169.9,4.8 170.6,4.8 C172,4.8 173.1,5.3 173.9,6.3 C174.7,7.3 175.1,8.6 175.1,10.4 C175.1,12.2 174.7,13.5 173.9,14.5 C173.1,15.4 172,15.9 170.6,15.9 Z M170.3,6.2 C169.2,6.2 168.4,6.5 167.9,7.1 C167.4,7.7 167.2,8.7 167.1,10 L167.1,10.4 C167.1,11.9 167.4,13 167.9,13.6 C168.4,14.2 169.2,14.6 170.3,14.6 C171.2,14.6 171.9,14.2 172.5,13.5 C173,12.8 173.3,11.7 173.3,10.4 C173.3,9.1 173,8 172.5,7.3 C172,6.5 171.3,6.2 170.3,6.2 Z" id="XMLID_101_"></path>
                            <path d="M182.7,4.8 C183.2,4.8 183.6,4.8 184,4.9 L183.8,6.4 C183.4,6.3 183,6.3 182.6,6.3 C181.7,6.3 181,6.7 180.4,7.4 C179.8,8.1 179.5,9 179.5,10 L179.5,15.7 L177.9,15.7 L177.9,5 L179.2,5 L179.4,7 L179.5,7 C179.9,6.3 180.4,5.8 180.9,5.4 C181.4,5 182.1,4.8 182.7,4.8 Z" id="XMLID_104_"></path>
                            <path d="M195.3,10.3 C195.3,12 194.9,13.4 194,14.4 C193.1,15.4 191.9,15.9 190.4,15.9 C189.4,15.9 188.6,15.7 187.9,15.2 C187.2,14.7 186.6,14.1 186.2,13.3 C185.8,12.5 185.6,11.5 185.6,10.4 C185.6,8.7 186,7.3 186.9,6.3 C187.8,5.3 189,4.8 190.5,4.8 C192,4.8 193.2,5.3 194.1,6.3 C194.8,7.3 195.3,8.6 195.3,10.3 Z M187.1,10.3 C187.1,11.7 187.4,12.7 187.9,13.4 C188.4,14.1 189.3,14.5 190.3,14.5 C191.4,14.5 192.2,14.1 192.7,13.4 C193.2,12.7 193.5,11.6 193.5,10.3 C193.5,8.9 193.2,7.9 192.7,7.2 C192.1,6.5 191.3,6.1 190.3,6.1 C189.2,6.1 188.4,6.4 187.9,7.1 C187.4,7.9 187.1,9 187.1,10.3 Z" id="XMLID_117_"></path>
                            <path d="M200.4,15.7 L196.3,5 L198,5 L200.3,11.3 C200.8,12.8 201.1,13.7 201.2,14.2 L201.3,14.2 C201.4,13.9 201.6,13.1 202,12.1 C202.4,11.1 203.2,8.7 204.6,5 L206.3,5 L202.2,15.7 L200.4,15.7 L200.4,15.7 Z" id="XMLID_120_"></path>
                            <path d="M214.7,15.7 L214.4,14.2 L214.3,14.2 C213.8,14.9 213.2,15.3 212.7,15.6 C212.2,15.8 211.5,16 210.7,16 C209.6,16 208.8,15.7 208.2,15.2 C207.6,14.7 207.3,13.9 207.3,12.9 C207.3,10.7 209,9.6 212.5,9.5 L214.3,9.4 L214.3,8.7 C214.3,7.9 214.1,7.2 213.8,6.8 C213.5,6.4 212.9,6.2 212.1,6.2 C211.2,6.2 210.2,6.5 209.1,7 L208.6,5.8 C209.1,5.5 209.7,5.3 210.3,5.1 C210.9,4.9 211.6,4.9 212.2,4.9 C213.5,4.9 214.4,5.2 215,5.7 C215.6,6.2 215.9,7.2 215.9,8.4 L215.9,15.7 L214.7,15.7 L214.7,15.7 Z M211,14.6 C212,14.6 212.8,14.3 213.4,13.8 C214,13.3 214.3,12.5 214.3,11.5 L214.3,10.5 L212.7,10.6 C211.4,10.6 210.5,10.8 209.9,11.2 C209.3,11.6 209,12.1 209,12.9 C209,13.5 209.2,13.9 209.5,14.2 C209.9,14.4 210.4,14.6 211,14.6 Z" id="XMLID_122_"></path>
                            <polygon id="XMLID_125_" points="220.9 15.7 219.3 15.7 219.3 0.5 220.9 0.5"></polygon>
                            <path d="M231.2,12.8 C231.2,13.8 230.8,14.6 230.1,15.1 C229.4,15.6 228.3,15.9 227,15.9 C225.6,15.9 224.5,15.7 223.7,15.2 L223.7,13.7 C224.2,14 224.8,14.2 225.4,14.3 C226,14.4 226.6,14.5 227.1,14.5 C227.9,14.5 228.6,14.4 229.1,14.1 C229.6,13.8 229.8,13.4 229.8,12.9 C229.8,12.5 229.6,12.1 229.3,11.8 C229,11.5 228.2,11.2 227.2,10.8 C226.2,10.4 225.5,10.1 225.1,9.8 C224.7,9.5 224.4,9.2 224.2,8.9 C224,8.6 223.9,8.1 223.9,7.6 C223.9,6.7 224.3,6 225,5.5 C225.7,5 226.7,4.7 227.9,4.7 C229.1,4.7 230.2,4.9 231.3,5.4 L230.7,6.7 C229.6,6.3 228.7,6 227.8,6 C227,6 226.5,6.1 226.1,6.4 C225.7,6.7 225.5,7 225.5,7.4 C225.5,7.7 225.6,7.9 225.7,8.1 C225.8,8.3 226.1,8.5 226.4,8.7 C226.7,8.9 227.4,9.1 228.3,9.5 C229.6,10 230.4,10.4 230.9,10.9 C231,11.5 231.2,12.1 231.2,12.8 Z" id="XMLID_127_"></path>
                        </g>
                        <g id="XMLID_43_" transform="translate(1023.000000, 12.000000)" fill="#27AE60">
                            <path d="M20.5,44.8 C31.7,44.8 40.8,35 40.8,22.7 C40.8,10.6 31.6,0.6 20.5,0.6 C9.3,0.6 0.2,10.4 0.2,22.7 C0.2,35 9.2,44.8 20.5,44.8 Z M20.5,9 C27.2,9 32.6,15.2 32.6,22.8 C32.6,30.4 27.2,36.6 20.5,36.6 C13.7,36.6 8.4,30.4 8.4,22.8 C8.3,15.2 13.7,9 20.5,9 Z" id="XMLID_63_"></path>
                            <path d="M70.3,60.3 C59.1,60.3 50,70.1 50,82.4 C50,94.7 59.2,104.5 70.3,104.5 C81.5,104.5 90.6,94.7 90.6,82.4 C90.6,70.1 81.6,60.3 70.3,60.3 Z M70.3,96.1 C63.6,96.1 58.2,89.9 58.2,82.3 C58.2,74.6 63.6,68.5 70.3,68.5 C77.1,68.5 82.4,74.7 82.4,82.3 C82.5,89.9 77.1,96.1 70.3,96.1 Z" id="XMLID_60_"></path>
                            <path d="M75.1,4 L5.9,93.5 C2.8,97.4 5.5,103.2 10.6,103.3 L10.7,103.3 C12.7,103.3 14.5,102.5 15.7,100.9 L84.7,11.4 C87.8,7.5 85.1,1.7 80,1.6 L80,1.6 C78.1,1.7 76.4,2.4 75.1,4 Z" id="XMLID_59_"></path>
                        </g>
                        <g id="XMLID_77_" transform="translate(998.000000, 167.000000)" fill="#333333">
                            <polygon id="XMLID_2_" points="0.8 15.7 0.8 1.4 2.5 1.4 2.5 14.2 8.8 14.2 8.8 15.7"></polygon>
                            <path d="M20.2,10.3 C20.2,12 19.8,13.4 18.9,14.4 C18,15.4 16.8,15.9 15.3,15.9 C14.3,15.9 13.5,15.7 12.8,15.2 C12.1,14.7 11.5,14.1 11.1,13.3 C10.7,12.5 10.5,11.5 10.5,10.4 C10.5,8.7 10.9,7.3 11.8,6.3 C12.7,5.3 13.9,4.8 15.4,4.8 C16.9,4.8 18.1,5.3 19,6.3 C19.7,7.3 20.2,8.6 20.2,10.3 Z M12,10.3 C12,11.7 12.3,12.7 12.8,13.4 C13.3,14.1 14.2,14.5 15.2,14.5 C16.3,14.5 17.1,14.1 17.6,13.4 C18.2,12.7 18.4,11.6 18.4,10.3 C18.4,8.9 18.1,7.9 17.6,7.2 C17.1,6.5 16.2,6.1 15.2,6.1 C14.1,6.1 13.3,6.4 12.8,7.1 C12.3,7.9 12,9 12,10.3 Z" id="XMLID_4_"></path>
                            <path d="M31.8,15.7 L29.8,9.4 C29.7,9 29.4,8.1 29.1,6.8 L29,6.8 C28.7,7.9 28.5,8.8 28.3,9.4 L26.3,15.7 L24.4,15.7 L21.5,5 L23.2,5 C23.9,7.7 24.4,9.7 24.8,11.1 C25.2,12.5 25.4,13.5 25.4,13.9 L25.5,13.9 C25.6,13.5 25.7,13 25.8,12.5 C26,11.9 26.1,11.4 26.2,11.1 L28.2,5 L30,5 L31.9,11.1 C32.3,12.2 32.5,13.2 32.6,13.9 L32.7,13.9 C32.7,13.7 32.8,13.3 32.9,12.8 C33,12.3 33.7,9.7 34.9,4.9 L36.6,4.9 L33.6,15.6 L31.8,15.6 L31.8,15.7 Z" id="XMLID_7_"></path>
                            <polygon id="XMLID_9_" points="37.7 11.1 37.7 9.6 42.5 9.6 42.5 11.1"></polygon>
                            <path d="M49.3,15.9 C47.8,15.9 46.6,15.4 45.7,14.5 C44.8,13.6 44.4,12.2 44.4,10.5 C44.4,8.7 44.8,7.3 45.7,6.3 C46.6,5.3 47.8,4.8 49.4,4.8 C49.9,4.8 50.4,4.9 50.9,5 C51.4,5.1 51.8,5.2 52.1,5.4 L51.6,6.8 C51.2,6.7 50.9,6.5 50.4,6.4 C50,6.3 49.6,6.3 49.3,6.3 C47.1,6.3 46,7.7 46,10.5 C46,11.8 46.3,12.8 46.8,13.5 C47.3,14.2 48.1,14.6 49.2,14.6 C50.1,14.6 51,14.4 51.9,14 L51.9,15.4 C51.3,15.7 50.4,15.9 49.3,15.9 Z" id="XMLID_11_"></path>
                            <path d="M63.8,10.3 C63.8,12 63.4,13.4 62.5,14.4 C61.6,15.4 60.4,15.9 58.9,15.9 C57.9,15.9 57.1,15.7 56.4,15.2 C55.7,14.7 55.1,14.1 54.7,13.3 C54.3,12.5 54.1,11.5 54.1,10.4 C54.1,8.7 54.5,7.3 55.4,6.3 C56.3,5.3 57.5,4.8 59,4.8 C60.5,4.8 61.7,5.3 62.6,6.3 C63.3,7.3 63.8,8.6 63.8,10.3 Z M55.6,10.3 C55.6,11.7 55.9,12.7 56.4,13.4 C56.9,14.1 57.8,14.5 58.8,14.5 C59.9,14.5 60.7,14.1 61.2,13.4 C61.8,12.7 62,11.6 62,10.3 C62,8.9 61.7,7.9 61.2,7.2 C60.7,6.5 59.8,6.1 58.8,6.1 C57.7,6.1 56.9,6.4 56.4,7.1 C55.9,7.9 55.6,9 55.6,10.3 Z" id="XMLID_13_"></path>
                            <path d="M73.5,12.8 C73.5,13.8 73.1,14.6 72.4,15.1 C71.7,15.6 70.6,15.9 69.3,15.9 C67.9,15.9 66.8,15.7 66,15.2 L66,13.7 C66.5,14 67.1,14.2 67.7,14.3 C68.3,14.4 68.9,14.5 69.4,14.5 C70.2,14.5 70.9,14.4 71.4,14.1 C71.9,13.8 72.1,13.4 72.1,12.9 C72.1,12.5 71.9,12.1 71.6,11.8 C71.3,11.5 70.5,11.2 69.5,10.8 C68.5,10.4 67.8,10.1 67.4,9.8 C67,9.5 66.7,9.2 66.5,8.9 C66.3,8.6 66.2,8.1 66.2,7.6 C66.2,6.7 66.6,6 67.3,5.5 C68,5 69,4.7 70.2,4.7 C71.4,4.7 72.5,4.9 73.6,5.4 L73,6.7 C71.9,6.3 71,6 70.1,6 C69.3,6 68.8,6.1 68.4,6.4 C68,6.7 67.8,7 67.8,7.4 C67.8,7.7 67.9,7.9 68,8.1 C68.1,8.3 68.4,8.5 68.7,8.7 C69,8.9 69.7,9.1 70.6,9.5 C71.9,10 72.7,10.4 73.2,10.9 C73.3,11.5 73.5,12.1 73.5,12.8 Z" id="XMLID_16_"></path>
                            <path d="M79.6,14.6 C79.9,14.6 80.2,14.6 80.4,14.5 C80.7,14.5 80.9,14.4 81,14.4 L81,15.6 C80.8,15.7 80.6,15.8 80.2,15.8 C79.8,15.8 79.6,15.9 79.3,15.9 C77.2,15.9 76.2,14.8 76.2,12.6 L76.2,6.2 L74.7,6.2 L74.7,5.4 L76.2,4.7 L76.9,2.4 L77.8,2.4 L77.8,4.9 L80.9,4.9 L80.9,6.2 L77.8,6.2 L77.8,12.5 C77.8,13.1 78,13.6 78.3,14 C78.6,14.4 79.1,14.6 79.6,14.6 Z" id="XMLID_18_"></path>
                            <polygon id="XMLID_20_" points="90 15.7 88.4 15.7 88.4 0.5 90 0.5"></polygon>
                            <path d="M102.7,10.3 C102.7,12 102.3,13.4 101.4,14.4 C100.5,15.4 99.3,15.9 97.8,15.9 C96.8,15.9 96,15.7 95.3,15.2 C94.6,14.7 94,14.1 93.6,13.3 C93.2,12.5 93,11.5 93,10.4 C93,8.7 93.4,7.3 94.3,6.3 C95.2,5.3 96.4,4.8 97.9,4.8 C99.4,4.8 100.6,5.3 101.5,6.3 C102.3,7.3 102.7,8.6 102.7,10.3 Z M94.5,10.3 C94.5,11.7 94.8,12.7 95.3,13.4 C95.8,14.1 96.7,14.5 97.7,14.5 C98.8,14.5 99.6,14.1 100.1,13.4 C100.7,12.7 100.9,11.6 100.9,10.3 C100.9,8.9 100.6,7.9 100.1,7.2 C99.6,6.5 98.7,6.1 97.7,6.1 C96.6,6.1 95.8,6.4 95.3,7.1 C94.8,7.9 94.5,9 94.5,10.3 Z" id="XMLID_22_"></path>
                            <path d="M112.1,15.7 L111.8,14.2 L111.7,14.2 C111.2,14.9 110.6,15.3 110.1,15.6 C109.6,15.8 108.9,16 108.1,16 C107,16 106.2,15.7 105.6,15.2 C105,14.7 104.7,13.9 104.7,12.9 C104.7,10.7 106.4,9.6 109.9,9.5 L111.7,9.4 L111.7,8.7 C111.7,7.9 111.5,7.2 111.2,6.8 C110.9,6.4 110.3,6.2 109.5,6.2 C108.6,6.2 107.6,6.5 106.5,7 L106,5.8 C106.5,5.5 107.1,5.3 107.7,5.1 C108.3,4.9 109,4.9 109.6,4.9 C110.9,4.9 111.8,5.2 112.4,5.7 C113,6.2 113.3,7.2 113.3,8.4 L113.3,15.7 L112.1,15.7 L112.1,15.7 Z M108.5,14.6 C109.5,14.6 110.3,14.3 110.9,13.8 C111.5,13.3 111.8,12.5 111.8,11.5 L111.8,10.5 L110.2,10.6 C108.9,10.6 108,10.8 107.4,11.2 C106.8,11.6 106.5,12.1 106.5,12.9 C106.5,13.5 106.7,13.9 107,14.2 C107.3,14.4 107.8,14.6 108.5,14.6 Z" id="XMLID_25_"></path>
                            <path d="M124,15.7 L124,8.8 C124,7.9 123.8,7.3 123.4,6.8 C123,6.4 122.4,6.2 121.5,6.2 C120.4,6.2 119.6,6.5 119,7.1 C118.5,7.7 118.2,8.7 118.2,10.1 L118.2,15.7 L116.6,15.7 L116.6,5 L117.9,5 L118.2,6.5 L118.3,6.5 C118.6,6 119.1,5.6 119.7,5.3 C120.3,5 121,4.9 121.7,4.9 C123,4.9 124,5.2 124.6,5.8 C125.3,6.4 125.6,7.4 125.6,8.8 L125.6,15.8 L124,15.8 L124,15.7 Z" id="XMLID_28_"></path>
                            <path d="M135.8,12.8 C135.8,13.8 135.4,14.6 134.7,15.1 C134,15.6 132.9,15.9 131.6,15.9 C130.2,15.9 129.1,15.7 128.3,15.2 L128.3,13.7 C128.8,14 129.4,14.2 130,14.3 C130.6,14.4 131.2,14.5 131.7,14.5 C132.5,14.5 133.2,14.4 133.7,14.1 C134.2,13.8 134.4,13.4 134.4,12.9 C134.4,12.5 134.2,12.1 133.9,11.8 C133.6,11.5 132.8,11.2 131.8,10.8 C130.8,10.4 130.1,10.1 129.7,9.8 C129.3,9.5 129,9.2 128.8,8.9 C128.6,8.6 128.5,8.1 128.5,7.6 C128.5,6.7 128.9,6 129.6,5.5 C130.3,5 131.3,4.7 132.5,4.7 C133.7,4.7 134.8,4.9 135.9,5.4 L135.3,6.7 C134.2,6.3 133.3,6 132.4,6 C131.6,6 131.1,6.1 130.7,6.4 C130.3,6.7 130.1,7 130.1,7.4 C130.1,7.7 130.2,7.9 130.3,8.1 C130.4,8.3 130.7,8.5 131,8.7 C131.3,8.9 132,9.1 132.9,9.5 C134.2,10 135,10.4 135.5,10.9 C135.6,11.5 135.8,12.1 135.8,12.8 Z" id="XMLID_30_"></path>
                        </g>
                        <g id="XMLID_105_" transform="translate(331.000000, 0.000000)">
                            <path d="M51.3,99.5 C51.8,98.9 52.1,98.5 52.5,98.1 C57.1,92.9 61.9,87.8 67.4,83.6 C72,80.1 76.9,77.1 82.5,75.6 C87.8,74.2 92.6,75 96.9,78.6 C97.9,79.5 98.7,80.5 99.5,81.6 C100.1,82.4 100.6,83.1 101.4,83.7 C101.9,84.1 102.4,84.3 103,84.5 C105.1,85.1 106.6,84 106.6,81.8 C106.6,80 105.9,78.4 105.1,76.8 C101.8,70.7 96.6,67.7 89.7,67.2 C84.2,66.8 79.2,68.4 74.4,70.8 C67.7,74.1 61.9,78.7 56.4,83.7 C51.3,88.4 46.5,93.5 42.5,99.1 C42.3,99.3 42.2,99.5 41.8,99.5 L32.3,99.5 C32.2,99.3 32.4,99.2 32.4,99.1 C38.2,91.2 44.5,83.7 51.7,77.1 C57.9,71.5 64.6,66.7 72.2,63.4 C77.9,60.9 83.8,59.4 90,59.6 C100.2,59.8 107.6,64.6 112.3,73.6 C115.1,78.9 116.5,84.7 117.2,90.6 C117.5,93.4 117.5,96.1 117.5,98.9 C117.5,99.4 117.3,99.6 116.8,99.5 L110.5,99.5 C110,99.5 109.8,99.3 109.8,98.8 C109.8,96.2 109.7,93.6 109,91.1 C108.9,90.6 108.7,90.2 108.4,89.7 C107.4,88 105.2,87.9 104.1,89.6 C103.4,90.6 103.3,91.8 103.2,93 C103,94.9 103,96.8 103.1,98.6 C103.1,99.2 103,99.5 102.3,99.4 L96.3,99.4 C95.8,99.4 95.6,99.2 95.7,98.7 C95.9,96.1 95.9,93.5 95.2,90.9 C94.7,89.3 94.1,87.7 93,86.3 C90.8,83.5 87.9,82.9 84.6,83.4 C80.8,84 77.5,85.7 74.3,87.8 C69.7,90.8 65.8,94.6 62.3,98.8 C62,99.2 61.6,99.4 61.1,99.4 C58.1,99.5 54.8,99.5 51.3,99.5 Z" id="XMLID_440_" fill="#D42837"></path>
                            <path d="M133.4,94.8 L133.4,98.9 C133.4,99.4 133.3,99.6 132.8,99.6 L126.4,99.6 C125.9,99.6 125.8,99.4 125.8,98.9 C125.7,94.8 125.6,90.7 125,86.6 C124.1,79.3 122.3,72.4 118.4,66.1 C113,57.4 105.2,52.4 95.1,51 C87.9,50 80.9,51.1 74.1,53.4 C65.3,56.5 57.5,61.3 50.2,67.2 C47.4,69.5 44.9,72 42,74.3 C40.9,75.2 39.8,76 38.6,76.6 C38.5,76.6 38.5,76.7 38.4,76.7 C37.4,77.1 36.4,77.4 35.4,76.6 C34.5,75.8 34.6,74.8 34.8,73.8 C35.1,72.5 35.9,71.5 36.7,70.5 C45,60.9 54.9,53.3 66.5,47.9 C72.7,45 79.1,43.1 86,42.6 C100.9,41.6 113.2,46.7 122.7,58.4 C127.5,64.3 130.3,71.2 131.8,78.6 C132.9,84 133.4,89.4 133.4,94.8 Z" id="XMLID_439_" fill="#D42837"></path>
                            <path d="M39.9,54.5 C42.5,51.1 45.3,48 48.4,45.2 C56.2,38 65.1,32.7 75.3,29.8 C81.9,27.9 88.6,27.2 95.4,27.7 C106,28.4 115.6,31.8 124.1,38.1 C131.7,43.8 137.4,51 141.5,59.6 C144.8,66.5 146.8,73.7 147.8,81.3 C148.4,86 148.6,90.7 148.5,95.4 C148.5,96.8 148.1,98 146.9,98.9 C145.5,99.9 143.1,100.1 142.2,97.5 C141.9,96.6 141.8,95.6 141.8,94.7 C141.8,83.8 139.7,73.3 135.2,63.4 C132.2,56.8 128.2,50.8 122.9,45.8 C117.3,40.5 110.7,37.3 103.2,35.6 C97.8,34.4 92.4,33.9 86.9,34.2 C79.5,34.5 72.4,36.2 65.5,38.9 C56.3,42.6 48.2,47.8 40.6,54.1 C40.4,54.3 40.2,54.4 40,54.5 C40.1,54.5 40.1,54.5 39.9,54.5 Z" id="XMLID_438_" fill="#D42837"></path>
                            <path d="M123.4,29 C125.4,29.5 127.2,30.3 129,31.1 C150.2,40.7 164.3,56.6 171.2,78.9 C173.2,85.4 174.1,92 174.2,98.8 C174.2,99.4 174.1,99.6 173.4,99.6 L160.2,99.6 C159.5,99.6 159.4,99.4 159.5,98.8 C159.7,90.1 158.8,81.6 156.4,73.2 C153.1,61.7 147.5,51.5 139.4,42.6 C134.9,37.6 129.9,33.3 124.3,29.7 C123.9,29.4 123.6,29.2 123.4,29 L123.4,29 Z" id="XMLID_437_" fill="#F9B610"></path>
                            <path d="M99.1,0.9 C100.7,3.7 103.3,5.3 105.6,7.4 C109.1,10.5 111.7,14.2 112.7,18.9 C112.9,19.9 112.9,19.9 111.9,19.8 C104.5,18.6 97.2,18.4 89.8,19.3 C88.6,19.4 87.4,19.6 86.2,19.8 C85.5,19.9 85.4,19.7 85.5,19.1 C86.3,15.2 88.2,12 90.9,9.2 C92.6,7.4 94.5,6 96.3,4.4 C97.4,3.4 98.4,2.3 99.1,0.9 Z" id="XMLID_436_" fill="#F9B610"></path>
                            <path d="M127.1,23.6 C129.2,21 131.9,19.1 134.9,17.9 C137.8,16.7 140.9,16.3 143.9,15.7 C145.3,15.5 146.7,15.1 148,14.4 C148.4,14.2 148.5,14.3 148.5,14.7 C148.5,16.4 149,18 149.6,19.5 C150.5,22 151.5,24.5 151.9,27.1 C152.4,30.4 152.3,33.6 151.2,36.8 C151,37.3 150.9,37.4 150.4,37 C143.5,31.3 135.8,26.9 127.5,23.8 C127.4,23.7 127.3,23.7 127.1,23.6 Z" id="XMLID_435_" fill="#F9B610"></path>
                            <path d="M49.9,14.2 C53.4,16.1 57.4,15.9 61.1,17 C64.6,18.1 67.8,19.8 70.3,22.5 C70.6,22.8 70.9,23.2 71.2,23.6 C69.2,24.4 67.2,25.2 65.2,26.1 C59,29 53.3,32.6 48,36.9 C47.3,37.5 47.3,37.5 47,36.6 C45.5,32 45.9,27.5 47.4,23 C48.1,20.8 49.1,18.7 49.6,16.5 C49.7,15.7 49.8,15 49.9,14.2 Z" id="XMLID_434_" fill="#F9B610"></path>
                            <path d="M184.6,50.3 C183.2,52.6 183,55 182.6,57.4 C181.9,61.8 180.5,65.8 177.6,69.3 C177,70 176.4,70.6 175.7,71.2 C175.3,71.6 175.1,71.6 174.9,71 C173.8,68.1 172.6,65.4 171.2,62.6 C168.6,57.6 165.5,52.9 161.9,48.5 C161.3,47.8 161.3,47.8 162.2,47.5 C166.8,46 171.3,46.4 175.9,47.9 C178.1,48.6 180.2,49.6 182.5,50.1 C183.2,50.2 183.9,50.2 184.6,50.3 Z" id="XMLID_433_" fill="#F9B610"></path>
                            <path d="M30.3,46.5 C32.3,46.4 34.3,46.8 36.3,47.5 C36.9,47.7 37,47.8 36.6,48.4 C31,55.2 26.6,62.8 23.5,71 C23.2,71.7 23,71.5 22.7,71.1 C19.4,68.2 17.5,64.5 16.5,60.3 C16,58 15.6,55.7 15.1,53.4 C14.9,52.5 14.6,51.6 14.1,50.7 C14,50.5 13.7,50.2 14.3,50.2 C16.8,50.2 19.1,49.1 21.4,48.3 C24.1,47.3 27,46.5 30.3,46.5 Z" id="XMLID_432_" fill="#F9B610"></path>
                            <path d="M69.2,118 L69.2,109 C69.2,108.5 69.3,108.3 69.9,108.2 C73.3,107.8 76.7,107.6 80,108.3 C85.4,109.4 87.7,113.5 87.4,118.3 C87.2,121 86.4,123.5 84.3,125.3 C82.6,126.8 80.5,127.5 78.3,127.9 C75.5,128.3 72.7,128.2 69.9,128 C69.4,128 69.2,127.8 69.2,127.2 L69.2,118 Z M73.8,118.1 L73.8,122.7 C73.8,124.6 73.8,124.6 75.7,124.6 C79.8,124.6 82.2,122.4 82.6,118.3 C82.9,114.9 81.3,112.3 78.3,111.6 C77.1,111.3 75.9,111.4 74.6,111.4 C74,111.4 73.7,111.6 73.8,112.3 C73.8,114.2 73.8,116.2 73.8,118.1 Z" id="XMLID_316_" fill="#D42837"></path>
                            <path d="M109.3,118 L109.3,127.2 C109.3,127.8 109.2,128 108.6,128 C107.6,127.9 106.5,127.9 105.5,128 C104.8,128 104.7,127.8 104.8,127.2 L104.8,120.4 C104.8,119.9 104.7,119.7 104.1,119.7 L97.6,119.7 C97.1,119.7 96.9,119.8 96.9,120.4 L96.9,127.4 C96.9,128 96.7,128.1 96.2,128.1 L92.9,128.1 C92.5,128.1 92.3,128 92.3,127.6 L92.3,108.8 C92.3,108.3 92.4,108.2 92.9,108.2 L96.3,108.2 C96.8,108.2 96.9,108.4 96.9,108.9 L96.9,115.2 C96.9,115.7 97,115.9 97.6,115.9 L104.1,115.9 C104.6,115.9 104.8,115.8 104.8,115.2 L104.8,108.9 C104.8,108.4 105,108.2 105.5,108.3 L108.7,108.3 C109.3,108.3 109.4,108.5 109.4,109.1 C109.3,111.9 109.3,114.9 109.3,118 Z" id="XMLID_315_" fill="#D42837"></path>
                            <path d="M170,118.6 C171.4,119.2 172.1,120.4 172.5,121.7 C173.1,123.6 173.6,125.5 174.2,127.5 C174.3,127.9 174.3,128 173.8,128 L170,128 C169.6,128 169.5,127.8 169.4,127.5 C168.9,126.3 168.6,125 168.3,123.8 C168.2,123.6 168.2,123.3 168.1,123.1 C167.4,120.4 166.4,120.2 163.8,120.2 C163.3,120.2 163.4,120.5 163.4,120.8 L163.4,127.3 C163.4,127.9 163.3,128.1 162.7,128 C161.6,127.9 160.5,128 159.4,128 C159,128 158.9,127.9 158.9,127.5 L158.9,108.9 C158.9,108.6 159,108.4 159.3,108.4 C162.6,108 166,107.7 169.3,108.5 C172.4,109.3 174,111.6 173.5,114.6 C173.2,116.3 172.2,117.5 170.7,118.3 C170.6,118.4 170.5,118.4 170.3,118.5 C170.3,118.4 170.2,118.5 170,118.6 Z M163.5,114.1 L163.5,116.4 C163.5,116.7 163.6,116.9 163.9,116.9 C164.7,116.9 165.6,116.9 166.4,116.8 C168,116.6 169.1,115.5 169.1,114 C169.1,112.6 168.2,111.5 166.6,111.4 C165.7,111.3 164.8,111.4 163.9,111.4 C163.5,111.4 163.4,111.6 163.4,111.9 C163.5,112.6 163.5,113.3 163.5,114.1 Z" id="XMLID_312_" fill="#D42837"></path>
                            <path d="M144.9,108 L147.4,108 C147.8,108 148,108.1 148.1,108.5 C150.1,114.8 152.2,121.1 154.2,127.4 C154.4,127.9 154.2,128 153.8,128 L150,128 C149.6,128 149.4,127.9 149.3,127.5 C148.9,126.2 148.4,124.8 148.1,123.5 C148,123 147.8,122.8 147.3,122.8 L142.5,122.8 C142.1,122.8 141.9,122.9 141.8,123.3 C141.4,124.7 141,126 140.7,127.4 C140.6,127.8 140.4,128 139.9,128 L136.5,128 C135.9,128 135.8,127.8 136,127.3 C137.7,121.9 139.4,116.5 141.1,111 C141.4,110.2 141.6,109.4 141.8,108.6 C141.9,108.2 142.1,108 142.6,108 C143.3,108.1 144.1,108 144.9,108 Z M144.7,111.4 C144.1,114 143.4,116.5 142.6,118.9 C142.5,119.2 142.6,119.4 143,119.4 L146.6,119.4 C146.9,119.4 147.1,119.3 147,118.9 C146.2,116.5 145.5,114 144.7,111.4 Z" id="XMLID_309_" fill="#D42837"></path>
                            <path d="M55.2,108 L57.5,108 C58.1,108 58.3,108.2 58.4,108.7 C60.1,113.9 61.8,119.2 63.5,124.4 C63.8,125.4 64.1,126.4 64.5,127.4 C64.6,127.8 64.6,127.9 64.2,127.9 L60.2,127.9 C59.8,127.9 59.7,127.7 59.6,127.4 C59.2,126 58.7,124.7 58.3,123.3 C58.2,122.8 57.9,122.7 57.5,122.7 L52.8,122.7 C52.3,122.7 52.1,122.9 52,123.4 C51.7,124.7 51.2,126.1 50.9,127.4 C50.8,127.8 50.6,128 50.1,128 L46.6,128 C46.1,128 46,127.9 46.1,127.4 C48.1,121.1 50.1,114.9 52,108.6 C52.1,108.2 52.3,108.1 52.7,108.1 C53.5,108 54.4,108 55.2,108 Z M54.9,111.3 C54.3,114 53.6,116.4 52.9,118.9 C52.8,119.4 52.9,119.4 53.3,119.4 L56.7,119.4 C57.2,119.4 57.3,119.2 57.1,118.8 C56.7,117.7 56.4,116.6 56.1,115.4 C55.8,114.2 55.4,112.8 54.9,111.3 Z" id="XMLID_306_" fill="#D42837"></path>
                            <path d="M40,127.9 C39.3,127.8 38.3,128.2 37.8,127.7 C37.3,127.2 37.2,126.2 37,125.5 C36.8,124.7 36.5,124 36.3,123.2 C36.2,122.9 36.1,122.7 35.7,122.7 L30.7,122.7 C30.3,122.7 30.2,122.9 30.1,123.2 C29.7,124.6 29.3,125.9 29,127.3 C28.9,127.8 28.6,128 28.1,127.9 L24.6,127.9 C24.2,127.9 24,127.9 24.2,127.4 C26.2,121.1 28.2,114.8 30.2,108.5 C30.3,108.2 30.4,108 30.8,108 L35.9,108 C36.3,108 36.4,108.2 36.5,108.5 C38.5,114.8 40.6,121 42.6,127.3 C42.8,127.9 42.6,127.9 42.1,127.9 L40,127.9 Z M33,111.4 C32.4,114 31.7,116.4 31,118.9 C30.9,119.3 31,119.4 31.4,119.4 L34.8,119.4 C35.4,119.4 35.4,119.2 35.2,118.8 C34.6,116.8 34,114.8 33.4,112.8 C33.3,112.4 33.3,111.9 33,111.4 Z" id="XMLID_303_" fill="#D42837"></path>
                            <path d="M123.1,108 L125.5,108 C125.9,108 126.1,108.1 126.3,108.5 C128.3,114.7 130.3,121 132.4,127.2 C132.6,127.7 132.5,127.9 131.9,127.8 L128.1,127.8 C127.7,127.8 127.5,127.7 127.4,127.3 C127,125.9 126.5,124.6 126.2,123.3 C126.1,122.8 125.9,122.6 125.3,122.6 L120.6,122.6 C120.1,122.6 119.9,122.7 119.8,123.2 C119.5,124.5 119.1,125.8 118.7,127.1 C118.6,127.6 118.4,127.8 117.8,127.8 C116.7,127.7 115.6,127.8 114.4,127.8 C113.8,127.8 113.7,127.7 113.9,127.1 C115.8,121 117.8,115 119.6,108.9 C119.9,108.1 120.2,107.8 121.1,107.9 C121.7,108.1 122.4,108 123.1,108 Z M122.8,111.3 C122.2,114 121.5,116.5 120.7,118.9 C120.6,119.3 120.7,119.4 121.1,119.4 L124.5,119.4 C125.1,119.4 125.2,119.3 125,118.7 C124.5,117.1 124,115.5 123.5,113.8 C123.3,113.1 123.1,112.3 122.8,111.3 Z" id="XMLID_203_" fill="#D42837"></path>
                            <path d="M197.5,99.5 L191.2,99.5 L180.9,99.5 C180.3,99.5 180.1,99.4 180.1,98.7 C180.1,94.6 179.7,90.5 179.1,86.5 C179,85.8 179.3,85.8 179.8,85.9 C182,86.3 184,87.1 185.9,88.3 C188.6,89.9 190.7,92.1 192.7,94.5 C194.1,96.3 195.5,98.2 197.5,99.5 Z" id="XMLID_202_" fill="#F9B610"></path>
                            <path d="M0.5,99.5 C2.5,98.4 3.8,96.8 5,95.2 C7.3,92.3 9.8,89.7 13.1,87.9 C14.8,87 16.5,86.3 18.4,85.9 C19.3,85.7 19.3,85.7 19.2,86.6 C18.6,90.6 18.2,94.7 18.2,98.7 C18.2,99.2 18.2,99.5 17.6,99.5 L1.1,99.5 C0.9,99.5 0.8,99.5 0.5,99.5 Z" id="XMLID_115_" fill="#F9B610"></path>
                            <path d="M70.9,99.5 C73.7,96.6 76.5,94 80,92.3 C81.1,91.8 82.2,91.4 83.3,91.3 C86.4,90.9 88.4,92.4 88.9,95.5 C89.1,96.7 89,97.8 88.9,99 C88.9,99.4 88.7,99.5 88.3,99.5 L83.2,99.5 C83,99.5 82.7,99.5 82.6,99.2 C82.4,98.5 81.8,98.4 81.2,98.5 C80.8,98.6 80.3,98.7 79.9,98.9 C79,99.4 78.1,99.4 77.2,99.4 C75.2,99.5 73.1,99.5 70.9,99.5 Z" id="XMLID_114_" fill="#D42837"></path>
                            <path d="M34.2,82.2 C34.2,83 34,83.7 33.6,84.3 C32.5,86 31.2,87.5 29.6,88.7 C29.1,89.1 28.5,89.4 27.8,89.4 C26.6,89.5 26,89.1 25.8,87.9 C25.7,87.2 25.7,86.5 25.9,85.9 C26.5,83.7 27.7,81.9 29.2,80.3 C30.5,78.9 32.4,78.9 33.5,80.2 C34,80.7 34.2,81.4 34.2,82.2 Z" id="XMLID_113_" fill="#D42837"></path>
                            <path d="M123.3,29 C123.2,29 123.1,29 123.2,28.9 C123.3,28.8 123.4,28.9 123.3,29 L123.3,29 Z" id="XMLID_112_" fill="#F9B610"></path>
                            <path d="M73.8,118.1 L73.8,112.3 C73.8,111.6 74,111.4 74.6,111.4 C75.8,111.4 77.1,111.3 78.3,111.6 C81.3,112.3 82.9,114.9 82.6,118.3 C82.2,122.3 79.8,124.5 75.7,124.6 C73.8,124.6 73.8,124.6 73.8,122.7 C73.8,121.2 73.8,119.6 73.8,118.1 Z" id="XMLID_111_" fill="#FEFEFD"></path>
                            <path d="M163.5,114.1 L163.5,111.8 C163.5,111.4 163.6,111.3 164,111.3 C164.9,111.3 165.8,111.2 166.7,111.3 C168.3,111.5 169.1,112.5 169.2,113.9 C169.2,115.3 168.1,116.5 166.5,116.7 C165.7,116.8 164.8,116.7 164,116.8 C163.6,116.8 163.6,116.7 163.6,116.3 C163.5,115.6 163.5,114.9 163.5,114.1 Z" id="XMLID_110_" fill="#FEFEFD"></path>
                            <path d="M144.7,111.4 C145.5,114 146.2,116.5 147,119 C147.1,119.4 147,119.5 146.6,119.5 L143,119.5 C142.6,119.5 142.5,119.3 142.6,119 C143.4,116.5 144.1,114 144.7,111.4 Z" id="XMLID_109_" fill="#FEFEFD"></path>
                            <path d="M54.9,111.3 C55.3,112.8 55.7,114.2 56.1,115.5 C56.4,116.6 56.8,117.7 57.1,118.9 C57.2,119.3 57.2,119.5 56.7,119.5 L53.3,119.5 C52.9,119.5 52.7,119.4 52.9,119 C53.6,116.4 54.3,114 54.9,111.3 Z" id="XMLID_108_" fill="#FEFEFD"></path>
                            <path d="M33,111.4 C33.3,111.9 33.3,112.3 33.5,112.7 C34.1,114.7 34.7,116.7 35.3,118.7 C35.4,119.1 35.4,119.4 34.9,119.3 L31.5,119.3 C31.1,119.3 31,119.3 31.1,118.8 C31.7,116.5 32.4,114 33,111.4 Z" id="XMLID_107_" fill="#FEFEFD"></path>
                            <path d="M122.8,111.3 C123.1,112.3 123.3,113.1 123.5,113.9 C124,115.5 124.5,117.1 125,118.8 C125.2,119.3 125.1,119.5 124.5,119.5 L121.1,119.5 C120.7,119.5 120.6,119.4 120.7,119 C121.5,116.5 122.2,114 122.8,111.3 Z" id="XMLID_106_" fill="#FEFEFD"></path>
                        </g>
                    </g>
                </g>
            </g>
        </g>
    </g>
</svg>